<svg id="visual" viewBox="0 0 900 600" width="900" height="600" xmlns="http://www.w3.org/2000/svg" xmlns:xlink="http://www.w3.org/1999/xlink" version="1.1"><rect x="0" y="0" width="900" height="600" fill="#ffffff"></rect><path d="M0 374L21.5 373.2C43 372.3 86 370.7 128.8 371.5C171.7 372.3 214.3 375.7 257.2 378.3C300 381 343 383 385.8 376C428.7 369 471.3 353 514.2 358.2C557 363.3 600 389.7 642.8 388.3C685.7 387 728.3 358 771.2 358.2C814 358.3 857 387.7 878.5 402.3L900 417L900 601L878.5 601C857 601 814 601 771.2 601C728.3 601 685.7 601 642.8 601C600 601 557 601 514.2 601C471.3 601 428.7 601 385.8 601C343 601 300 601 257.2 601C214.3 601 171.7 601 128.8 601C86 601 43 601 21.5 601L0 601Z" fill="#ffffff"></path><path d="M0 452L21.5 435.8C43 419.7 86 387.3 128.8 384C171.7 380.7 214.3 406.3 257.2 407.8C300 409.3 343 386.7 385.8 379.7C428.7 372.7 471.3 381.3 514.2 395.8C557 410.3 600 430.7 642.8 436.7C685.7 442.7 728.3 434.3 771.2 419.2C814 404 857 382 878.5 371L900 360L900 601L878.5 601C857 601 814 601 771.2 601C728.3 601 685.7 601 642.8 601C600 601 557 601 514.2 601C471.3 601 428.7 601 385.8 601C343 601 300 601 257.2 601C214.3 601 171.7 601 128.8 601C86 601 43 601 21.5 601L0 601Z" fill="#cde5e2"></path><path d="M0 479L21.5 468.3C43 457.7 86 436.3 128.8 433.7C171.7 431 214.3 447 257.2 457C300 467 343 471 385.8 462.7C428.7 454.3 471.3 433.7 514.2 433.8C557 434 600 455 642.8 462.7C685.7 470.3 728.3 464.7 771.2 466.3C814 468 857 477 878.5 481.5L900 486L900 601L878.5 601C857 601 814 601 771.2 601C728.3 601 685.7 601 642.8 601C600 601 557 601 514.2 601C471.3 601 428.7 601 385.8 601C343 601 300 601 257.2 601C214.3 601 171.7 601 128.8 601C86 601 43 601 21.5 601L0 601Z" fill="#9accc5"></path><path d="M0 480L21.5 483.7C43 487.3 86 494.7 128.8 496.5C171.7 498.3 214.3 494.7 257.2 497C300 499.3 343 507.7 385.8 502.2C428.7 496.7 471.3 477.3 514.2 470.3C557 463.3 600 468.7 642.8 473.2C685.7 477.7 728.3 481.3 771.2 488.7C814 496 857 507 878.5 512.5L900 518L900 601L878.5 601C857 601 814 601 771.2 601C728.3 601 685.7 601 642.8 601C600 601 557 601 514.2 601C471.3 601 428.7 601 385.8 601C343 601 300 601 257.2 601C214.3 601 171.7 601 128.8 601C86 601 43 601 21.5 601L0 601Z" fill="#64b2a9"></path><path d="M0 563L21.5 561C43 559 86 555 128.8 551.7C171.7 548.3 214.3 545.7 257.2 539.2C300 532.7 343 522.3 385.8 518C428.7 513.7 471.3 515.3 514.2 521.8C557 528.3 600 539.7 642.8 542.8C685.7 546 728.3 541 771.2 537.5C814 534 857 532 878.5 531L900 530L900 601L878.5 601C857 601 814 601 771.2 601C728.3 601 685.7 601 642.8 601C600 601 557 601 514.2 601C471.3 601 428.7 601 385.8 601C343 601 300 601 257.2 601C214.3 601 171.7 601 128.8 601C86 601 43 601 21.5 601L0 601Z" fill="#15998e"></path></svg>